<?xml version="1.0" encoding="UTF-8"?>
<svg id="Calque_2" data-name="Calque 2" xmlns="http://www.w3.org/2000/svg" viewBox="0 0 216 159.94">
  <defs>
    <style>
      .cls-1 {
        fill: #fff;
      }
    </style>
  </defs>
  <g id="Maquette">
    <g>
      <g>
        <path class="cls-1" d="m18.01.07c5.96.09,10.1,1.63,12.44,4.62.72.95,1.18,1.99,1.37,3.12.19,1.13.11,2.15-.25,3.06-.36.91-1.01,1.66-1.95,2.24-.94.59-2.08.83-3.45.75-4.98-.26-8.32.07-10.02.98,5.1-.3,9.76.02,13.97.98.6.13,1.19.33,1.79.59.04.22.12.52.22.91.11.39.2.75.29,1.07.08.33.18.69.29,1.11.11.41.2.79.29,1.14.64,2.34,1.21,3.84,1.72,4.49,1.06,1.3,2.34,2.06,3.83,2.28-.55-.22-1.12-.53-1.69-.94-.57-.41-1.07-1.16-1.5-2.24-.43-1.08-.84-2.52-1.24-4.32-.4-1.8-.63-2.74-.67-2.83-.6-2.12-.79-4.14-.57-6.05.21-2.08.96-3.9,2.23-5.46,1.36-1.69,3.36-3.01,6-3.97,1.36-.48,2.85-.85,4.47-1.11,1.66-.26,3.4-.41,5.23-.45,1.83.04,3.57.2,5.23.45,1.7.26,3.25.63,4.66,1.11,2.81.95,4.98,2.28,6.51,3.97,1.4,1.56,2.27,3.36,2.62,5.4.3,1.95.15,3.99-.45,6.11-.6,2.17-1.13,4.38-1.6,6.63,0,.09-.02.25-.06.49-.04.24-.07.42-.1.55-.02.13-.06.3-.13.52-.06.22-.13.4-.19.55-.06.15-.14.31-.22.49-.09.17-.18.33-.29.46-.11.13-.22.26-.35.39-.17.13-.37.24-.61.32-.23.09-.49.14-.77.16-.28.02-.54.04-.8.07-.25.02-.56.01-.93-.03-.36-.04-.66-.08-.89-.1-.23-.02-.55-.06-.96-.13-.4-.07-.7-.12-.89-.16-.19-.04-.49-.11-.89-.2-.4-.09-.65-.15-.73-.2l-2.42-.32c1.57.56,2.7.98,3.38,1.24.13.04.4.37.83.98.6.95,1.27,1.8,2.01,2.54.74.74,1.35,1.47,1.82,2.21.98,1.6,1.28,3.19.89,4.75-.38,1.56-1.24,2.96-2.58,4.19-1.34,1.24-2.84,2.05-4.5,2.44-1.75.35-3.45.56-5.1.65s-3.27-.21-4.82-.88c-1.55-.67-2.75-1.72-3.6-3.15-2.04-3.47-2.38-7.41-1.02-11.84,0-.09.03-.27.1-.55.06-.28.13-.48.19-.59.06-.11.16-.24.29-.39.13-.15.28-.27.45-.36.68-.22,1.4-.43,2.17-.65.77-.22,1.36-.39,1.79-.52l.64-.13c-.3,0-1.43.13-3.38.39-.51.09-1.27.24-2.27.46-1,.22-1.73.35-2.2.39.47,2.25.38,4.55-.26,6.89-.38,1.52-1.12,2.89-2.2,4.13-1.08,1.24-2.34,2.25-3.76,3.06-1.43.8-3.03,1.49-4.82,2.05-1.79.56-3.55.98-5.3,1.24-1.75.26-3.51.41-5.3.46-2.17.04-4.3-.13-6.38-.52-2.08-.39-4.03-1.02-5.84-1.89-1.81-.87-3.35-1.93-4.63-3.19-1.28-1.26-2.18-2.81-2.71-4.65-.53-1.84-.56-3.87-.1-6.08.21-1.04.66-2,1.34-2.89.68-.89,1.4-1.59,2.17-2.11.77-.52,1.53-.93,2.3-1.24,1.83-.74,3.91-1.18,6.25-1.33,2.34-.15,4.23-.14,5.68.03l2.17.32c-2.6-1.13-5.79-1.54-9.57-1.24-1.02.09-2.02.11-3,.07-1.32-.04-2.47-.33-3.45-.85-.98-.52-1.72-1.19-2.23-2.02-.51-.82-.88-1.66-1.12-2.5-.23-.85-.35-1.7-.35-2.57,0-2.04.35-3.84,1.05-5.4.7-1.56,1.62-2.82,2.74-3.77,1.13-.95,2.48-1.71,4.05-2.28,1.57-.56,3.14-.94,4.69-1.14,1.55-.2,3.2-.27,4.95-.23Z"/>
        <path class="cls-1" d="m70.01,10.54c-.04-1.86.45-3.52,1.47-4.97,1.02-1.45,2.34-2.56,3.96-3.32,1.62-.76,3.25-1.32,4.91-1.69C82.01.19,83.6,0,85.13,0c6.85,0,11.83,1.08,14.93,3.25,2.34,1.65,3.9,3.6,4.69,5.85.79,2.25.82,4.49.1,6.7-.3.95-1.03,1.72-2.2,2.31-1.17.59-2.27.75-3.29.49-.89-.22-1.79-.33-2.68-.33s-1.57.04-2.04.13l-.64.2c1.49-.04,3.1.17,4.85.65,2.17.61,4.01,1.55,5.52,2.83,1.51,1.28,2.61,2.74,3.29,4.39.68,1.65.97,3.45.86,5.4-.11,1.95-.63,3.88-1.56,5.79-.94,1.95-2.51,3.44-4.72,4.45-2.21,1.02-4.55,1.46-7.02,1.33-2.47-.13-4.68-.74-6.64-1.82-.94-.52-1.84-1.52-2.71-2.99-.87-1.47-1.39-2.75-1.56-3.84-.13-1.08-.21-2.21-.26-3.38-.04-1.17-.04-2.06,0-2.67l.06-.91c-.09.43-.2,1.02-.35,1.76-.15.74-.2,2.18-.16,4.32.04,2.15.36,4.17.96,6.08.42,1.52.15,2.8-.83,3.84-.98,1.04-2.3,1.58-3.96,1.63-3.79.17-6.4-.59-7.85-2.28-1.45-1.69-2.04-4.25-1.79-7.67.08-.95.42-2.75.99-5.4.57-2.64.9-4.96.99-6.96.08-2.56-.23-4.75-.96-6.57-.72-1.82-1.11-3.84-1.15-6.05Zm25.84-1.63c-.26.17-.63.41-1.12.72-.49.3-.86.56-1.12.78-.6-.78-1.49-1.47-2.68-2.08.3.35.54.67.73.98.19.3.37.58.54.81.17.24.34.49.51.75-.43.39-.85.77-1.28,1.14-.43.37-.72.66-.89.88l-.25.26c.85-.22,1.87-.72,3.06-1.5.3.39.61.78.93,1.17.32.39.58.67.8.85l.32.32c-.21-.82-.64-1.76-1.28-2.8.25-.26.48-.51.67-.75.19-.24.35-.44.48-.62.13-.17.23-.33.32-.46.08-.13.15-.24.19-.33l.06-.13Z"/>
        <path class="cls-1" d="m159.66,0c4.64,0,8.42,1.21,11.36,3.64,1.15.95,2.04,2.1,2.68,3.45.64,1.34.62,2.6-.06,3.77-.51.87-1.6,1.24-3.25,1.11-4.3-.35-7.91.35-10.85,2.08.21-.09.5-.17.86-.26.36-.09,1.09-.23,2.2-.42,1.11-.2,2.19-.33,3.25-.39,1.06-.07,2.3-.04,3.7.06,1.4.11,2.7.36,3.89.75.85.26,1.58.67,2.2,1.24.62.56,1.08,1.2,1.4,1.92.32.72.52,1.51.61,2.37.08,1.69-.34,2.94-1.28,3.74-.94.8-2.55.84-4.85.1-1.57-.52-3.48-.82-5.71-.91-2.23-.09-3.97.06-5.2.46,3.06-.09,6.04.26,8.93,1.04,3.7,1.04,6.13,2.41,7.27,4.1.85,1.26,1.3,2.99,1.34,5.2s-.25,4.01-.89,5.4c-1.02,2.69-2.83,4.55-5.42,5.59-2.6,1.04-5.81,1.54-9.64,1.5-8.04-.09-13.66-2.6-16.85-7.54-.04.13-.11.28-.19.46-1.02,2.69-2.83,4.55-5.42,5.59-2.6,1.04-5.81,1.54-9.64,1.5-4.55-.04-8.32-.87-11.29-2.47-2.98-1.6-5.19-3.9-6.64-6.89-1.45-2.99-2.28-6.76-2.49-11.32-.13-2.95-.09-5.58.13-7.9.21-2.32.69-4.57,1.44-6.76.74-2.19,1.78-4.01,3.1-5.46,1.32-1.45,3.09-2.6,5.33-3.45C121.92.43,124.54,0,127.57,0c4.64,0,8.42,1.21,11.36,3.64,1.15.95,2.04,2.1,2.68,3.45.64,1.34.62,2.6-.06,3.77-.51.87-1.62,1.24-3.32,1.11-1.11-.17-2.28-.27-3.51-.29-1.23-.02-2.54.17-3.92.59-1.38.41-2.5,1.01-3.35,1.79.13-.09.34-.17.64-.26.3-.09.86-.24,1.69-.46.83-.22,1.64-.38,2.42-.49.79-.11,1.71-.14,2.78-.1,1.06.04,2.02.2,2.87.46.85.26,1.51.77,1.98,1.53.47.76.72,1.55.77,2.37.04,1.17-.03,2.09-.22,2.76-.19.67-.6,1.17-1.21,1.5-.62.32-1.26.52-1.91.59-.66.06-1.63.1-2.9.1-2.47-.04-4.4.17-5.81.65,3.02-.09,6,.26,8.93,1.04,3.66,1.04,6.08,2.41,7.27,4.1,1.02,1.47,1.45,3.56,1.28,6.24.26-.52.35-1.63.29-3.32s-.42-2.99-1.05-3.9c-.17-.26-.36-.52-.57-.78-.21-.26-.49-.51-.83-.75-.34-.24-.57-.41-.7-.52-.13-.11-.41-.31-.86-.62-.45-.3-.69-.45-.73-.45-.09-2.77.01-5.29.29-7.54.28-2.25.81-4.42,1.6-6.5.79-2.08,1.85-3.81,3.19-5.2,1.34-1.39,3.12-2.49,5.33-3.32,2.21-.82,4.79-1.21,7.72-1.17Z"/>
        <path class="cls-1" d="m194.8,0c1.83.04,3.59.17,5.29.39,1.66.26,3.21.63,4.66,1.11,2.77.95,4.94,2.3,6.51,4.03,1.4,1.52,2.25,3.32,2.55,5.4.34,1.95.21,3.97-.38,6.05-.64,2.21-1.17,4.42-1.59,6.63,0,.04-.03.24-.1.59-.06.35-.11.58-.13.68-.02.11-.07.3-.16.59-.09.28-.17.5-.26.65-.09.15-.19.33-.32.52-.13.2-.28.34-.45.42-.21.17-.46.3-.73.39-.28.09-.54.15-.8.2-.26.04-.59.06-.99.03-.4-.02-.73-.04-.99-.07-.26-.02-.62-.08-1.08-.16-.47-.09-.8-.15-.99-.2-.19-.04-.53-.12-1.02-.23-.49-.11-.78-.16-.86-.16l-2.42-.39c1.57.56,2.72,1,3.45,1.3.09.04.34.37.77.98.64.91,1.32,1.75,2.04,2.5.72.76,1.34,1.49,1.85,2.18.94,1.6,1.22,3.19.86,4.75s-1.21,2.97-2.55,4.23c-1.34,1.26-2.84,2.08-4.5,2.47-1.74.35-3.45.55-5.11.62-1.66.06-3.28-.24-4.85-.91-1.58-.67-2.77-1.7-3.57-3.09-2.08-3.51-2.45-7.48-1.08-11.9.04-.09.08-.23.13-.42.04-.2.08-.35.13-.45.04-.11.1-.24.16-.39.06-.15.15-.27.26-.36.11-.09.22-.15.35-.2.68-.26,1.4-.5,2.17-.72.77-.22,1.36-.37,1.79-.45l.64-.13c-.26,0-1.36.13-3.32.39-.55.04-1.35.19-2.39.42-1.04.24-1.84.38-2.39.42-.55.04-1.24-.02-2.07-.2-.83-.17-1.63-.54-2.39-1.11-.47-.35-.89-.95-1.28-1.82-.38-.87-.68-1.7-.89-2.5-.21-.8-.45-1.77-.7-2.89-.25-1.13-.45-1.86-.57-2.21-.59-2.12-.79-4.14-.57-6.05.26-2.04,1-3.84,2.23-5.4,1.4-1.73,3.4-3.06,6-3.97,1.4-.52,2.91-.91,4.53-1.17,1.62-.22,3.34-.35,5.17-.39Z"/>
      </g>
      <g>
        <path class="cls-1" d="m24.45,48.59c6.22.06,11.87.77,16.95,2.12,4.91,1.35,9.01,3.26,12.28,5.71,2.95,2.21,5.08,4.76,6.39,7.65,1.15,2.76,1.47,5.62.98,8.57-.57,3.07-1.02,6.2-1.35,9.4-.33,3.62-.53,6.79-.62,9.49-.24,6.14-3.21,11.26-8.9,15.34-5.69,4.09-12.63,6.13-20.82,6.13-5.73,0-10.93-.92-15.6-2.76-4.67-1.84-8.31-4.27-10.93-7.28C1.03,100.86.09,98.51,0,95.9c-.08-2.61.53-5.01,1.84-7.19,1.31-2.18,3.23-4.05,5.77-5.62,2.53-1.57,5.36-2.41,8.47-2.53,2.46-.06,4.83.14,7.12.6,2.29.46,4.17,1.03,5.65,1.7,1.47.68,2.76,1.37,3.87,2.07,1.11.71,1.9,1.31,2.39,1.8l.74.74c-1.31-2.64-3.56-4.64-6.76-5.99-.24-.12-.43-.21-.55-.28-.12-.06-.25-.17-.37-.32-.12-.15-.21-.26-.25-.32-.04-.06-.14-.23-.3-.51-.17-.28-.29-.51-.37-.69-.82-1.53-2.07-2.92-3.75-4.15-1.68-1.23-3.4-2.2-5.16-2.9-1.76-.7-3.56-1.49-5.4-2.35-1.84-.86-3.48-1.72-4.91-2.58-1.43-.86-2.56-2.03-3.38-3.5s-1.11-3.16-.86-5.07c.82-6.69,7.7-10.1,20.63-10.23Z"/>
        <path class="cls-1" d="m92.38,48.59c6.31.06,12.04.77,17.2,2.12,4.99,1.41,9.13,3.32,12.4,5.71,2.95,2.21,5.04,4.76,6.27,7.65.65,1.66,1.02,3.29,1.11,4.88.08,1.6-.02,2.95-.31,4.05-.29,1.11-.61,2.47-.98,4.1-.37,1.63-.55,3.12-.55,4.47-.08,1.23.18,2.89.8,4.97.61,2.09,1.21,4.01,1.78,5.76.57,1.75.84,3.76.8,6.03-.04,2.27-.64,4.33-1.78,6.17-1.06,1.78-3.25,3.44-6.57,4.97-3.32,1.54-6.37,2.33-9.15,2.4-.82,0-1.64-.01-2.46-.05-.82-.03-1.76-.12-2.82-.28-1.07-.15-1.97-.37-2.7-.65s-1.43-.65-2.09-1.11c-.66-.46-1-1.03-1.05-1.7-.04-.67.1-1.47.43-2.4,2.7-5.9,3.6-10.99,2.7-15.29,0,.74-.11,1.75-.31,3.04-.2,1.29-.86,3.52-1.96,6.68-1.11,3.16-2.6,5.85-4.49,8.06-1.97,1.66-4.61,2.98-7.92,3.96-3.32.98-7.06,1.17-11.24.55-2.78-.37-5.12-1.17-7-2.39-1.88-1.23-3.26-2.67-4.11-4.33-.86-1.66-1.54-3.53-2.03-5.62-.49-2.09-.7-4.19-.62-6.31s.08-4.22,0-6.31c-.08-2.09-.17-3.99-.24-5.71-.24-3.19-.82-6.33-1.72-9.4-.9-2.95-1.11-5.8-.62-8.57.49-2.95,1.72-5.5,3.68-7.65,2.21-2.46,5.45-4.36,9.7-5.71,4.34-1.35,9.62-2.06,15.85-2.12Zm19.9,26.72c-.49.25-1.21.58-2.15,1.01-.94.43-1.7.8-2.27,1.11-1.06-1.11-2.74-2.09-5.03-2.95.65.61,1.29,1.28,1.9,1.98.62.71,1.12,1.24,1.54,1.61-.9.55-1.74,1.09-2.52,1.61-.78.52-1.33.94-1.66,1.24l-.49.37c1.64-.31,3.6-1.01,5.9-2.12.49.61,1.06,1.18,1.72,1.7.65.52,1.18.91,1.59,1.15l.49.46c-.33-1.17-1.11-2.49-2.33-3.96.41-.37.82-.72,1.23-1.06.41-.34.74-.63.98-.87.25-.24.45-.46.62-.65.16-.18.29-.34.37-.46l.12-.18Z"/>
        <path class="cls-1" d="m182.41,59.18c-1.8-3.56-1.39-6.29,1.23-8.2,2.62-1.9,6.1-2.55,10.44-1.93,4.34.61,7.74,2.21,10.2,4.79,3.93,4.18,5.4,10.93,4.42,20.27-.17,1.41.26,3.15,1.29,5.21,1.02,2.06,2.09,4.02,3.19,5.9,1.11,1.87,1.94,4.27,2.52,7.19.57,2.92.33,5.97-.74,9.17-.49,1.54-1.52,3.03-3.07,4.47-1.56,1.44-3.44,2.66-5.65,3.64-2.21.98-4.54,1.69-7,2.12-1.15.18-1.88.29-2.21.32-.33.03-1.19.14-2.58.32-1.39.18-2.44.28-3.13.28h-2.89c-1.23,0-2.17-.12-2.82-.37-.66-.25-1.37-.55-2.15-.92-.78-.37-1.31-.89-1.6-1.57-.29-.68-.39-1.47-.3-2.4v-3.41c0-.37.16-.61.49-.74.17-.06.33-.09.49-.09.49-.24.98-.52,1.47-.83,1.64-1.11,2.99-2.92,4.05-5.44.57-1.35.94-2.82,1.11-4.42.17-1.6.17-2.82,0-3.68l-.12-1.38c-.25,3.01-.82,5.62-1.72,7.83-.65,1.6-1.88,3.38-3.68,5.34-.49.55-1.05.78-1.66.69s-1-.48-1.17-1.15c-1.07-3.75-3.24-7.77-6.51-12.07.49.8,1.08,1.84,1.78,3.13.7,1.29,1.53,3.66,2.52,7.09.98,3.44,1.31,6.51.98,9.21-.49,3.62-5.53,5.44-15.11,5.44-5.4.06-10.63-.54-15.66-1.8-5.04-1.26-8.99-3.21-11.85-5.85-2.13-1.96-3.44-3.96-3.93-5.99-.49-2.03-.47-3.76.06-5.2.53-1.44,1.17-3.21,1.91-5.3.74-2.09,1.11-3.93,1.11-5.53,0-1.11-.47-3.49-1.41-7.14-.94-3.65-1.46-5.94-1.54-6.86-.9-10.38,4.26-16.95,15.48-19.72,3.85-.8,7.72-1.09,11.61-.87,3.89.22,7.59,1.09,11.12,2.63,3.52,1.54,6.06,3.53,7.62,5.99,1.14,1.66,2.05,3.22,2.7,4.7.82,1.9,1.39,3.99,1.72,6.27.32,2.27.45,4.36.37,6.26-.08,1.9-.21,3.68-.37,5.34-.17,1.66-.37,2.95-.62,3.87l-.37,1.38c4.01-9.27,4.01-17.93,0-25.98Z"/>
      </g>
      <g>
        <path class="cls-1" d="m13.91,116.46c2.11.04,4.21.45,6.31,1.21,2.09.77,3.71,1.85,4.85,3.26.54.62.99,1.42,1.36,2.39.37.97.5,1.83.4,2.58-.1.62-.28,1.1-.55,1.43-.27.33-.63.53-1.08.59-.45.06-.84.07-1.16.03-.32-.04-.76-.12-1.33-.25-.07,0-.13-.02-.2-.06-1.11-.29-2.67-.35-4.7-.19-2.03.17-3.63.62-4.8,1.37.54-.12,1.23-.25,2.09-.37.85-.12,2.32-.14,4.4-.06,2.08.08,3.82.48,5.23,1.18,2.78,1.33,3.74,3.73,2.86,7.2-.23.7-.49,1.29-.75,1.77-.27.48-.55.81-.85.99s-.62.3-.95.34c-.33.04-.7,0-1.08-.12-.39-.12-.77-.29-1.16-.5-.39-.21-.81-.46-1.28-.75-.47-.29-.92-.57-1.36-.84-.44-.27-.92-.54-1.46-.81-.54-.27-1.06-.47-1.56-.59-2.21-.62-3.95-.75-5.23-.37.77.12,1.57.27,2.41.43.23.04.38.11.43.22.05.1.08.22.08.34-.03.21-.06.39-.08.56-.02.17,0,.33.02.5.03.17.06.31.08.43.02.12.08.26.2.4.12.15.2.26.25.34.05.08.17.21.35.37.18.17.32.29.4.37.08.08.27.23.55.43.28.21.49.37.63.5.13.12.38.31.75.56.37.25.7.48,1.01.68.3.21.66.5,1.08.87.42.37.78.76,1.08,1.15.3.39.61.9.93,1.52.32.62.54,1.27.65,1.96.12.68.21,1.52.28,2.52.07.99-.02,2.05-.25,3.17-.13,1.08-.43,2.01-.88,2.79-.45.79-.99,1.42-1.61,1.89-.62.48-1.34.87-2.16,1.18-.82.31-1.68.51-2.59.59-.9.08-1.85.16-2.84.22-.99.06-1.97.05-2.94-.03-2.11-.04-3.87-.77-5.28-2.17-1.41-1.41-2.35-3.18-2.84-5.31-.49-2.13-.56-4.46-.23-6.99.23-1.78.35-3.91.35-6.4,0-1.28-.16-2.76-.48-4.44-.32-1.68-.62-3.11-.9-4.32-.28-1.2-.4-2.61-.35-4.22.05-1.61.38-3.19.98-4.72,1.27-3.11,5.58-4.72,12.92-4.84Z"/>
        <path class="cls-1" d="m42.66,116.39c3.65.04,6.63,1.2,8.95,3.48.9.95,1.61,2.07,2.11,3.35.5,1.28.49,2.48-.05,3.6-.4.83-1.26,1.18-2.56,1.06-3.42-.33-6.27.31-8.54,1.93.17-.04.39-.1.68-.19.28-.08.86-.22,1.73-.4.87-.19,1.73-.31,2.56-.37.84-.06,1.81-.04,2.91.06,1.11.1,2.13.32,3.07.65.97.41,1.75,1.09,2.34,2.02.59.93.91,2.04.98,3.32.07,1.61-.27,2.81-1.01,3.57-.74.77-2.01.78-3.82.03-1.24-.5-2.74-.79-4.5-.87-1.76-.08-3.12.06-4.1.43,2.38-.08,4.72.27,7.04,1.06,2.88.95,4.79,2.24,5.73,3.85.67,1.2,1.02,2.86,1.06,4.97.03,2.11-.2,3.85-.7,5.22-.8,2.57-2.23,4.34-4.27,5.31-2.04.97-4.57,1.44-7.59,1.4-5.33-.04-9.28-1.71-11.86-5-2.58-3.29-3.99-8.21-4.22-14.75-.1-2.81-.07-5.33.1-7.54.17-2.21.54-4.37,1.13-6.46.59-2.09,1.4-3.82,2.44-5.19,1.04-1.37,2.44-2.46,4.2-3.29,1.76-.83,3.83-1.24,6.21-1.24Z"/>
        <path class="cls-1" d="m72.36,116.52c4.69.08,7.96,1.55,9.8,4.41.57.91.93,1.9,1.08,2.98.15,1.08.08,2.05-.2,2.92-.29.87-.8,1.58-1.53,2.14-.74.56-1.64.8-2.71.71-3.92-.25-6.55.06-7.89.93,4.02-.29,7.69.02,11.01.93.47.12.94.31,1.41.56.03.21.09.5.18.87.08.37.16.71.23,1.02.07.31.14.66.23,1.06.08.39.16.76.23,1.09.5,2.24.95,3.66,1.36,4.28.84,1.24,1.84,1.97,3.02,2.17-.44-.21-.88-.51-1.33-.9-.45-.39-.85-1.11-1.18-2.14-.34-1.03-.66-2.41-.98-4.13-.32-1.72-.49-2.62-.53-2.7-.47-2.03-.62-3.95-.45-5.78.17-1.99.75-3.73,1.76-5.22,1.07-1.61,2.65-2.88,4.72-3.79,1.07-.46,2.24-.81,3.52-1.06,1.31-.25,2.68-.39,4.12-.43,1.44.04,2.81.19,4.12.43,1.34.25,2.56.6,3.67,1.06,2.21.91,3.92,2.17,5.13,3.79,1.11,1.49,1.79,3.21,2.06,5.15.23,1.86.12,3.81-.35,5.84-.47,2.07-.89,4.18-1.26,6.33,0,.08-.02.24-.05.47-.03.23-.06.4-.08.53-.02.12-.05.29-.1.5-.05.21-.1.38-.15.53-.05.15-.11.3-.18.47-.07.17-.14.31-.23.43-.08.12-.18.25-.28.37-.13.12-.29.23-.48.31-.18.08-.39.13-.6.16-.22.02-.43.04-.63.06-.2.02-.44.01-.73-.03-.28-.04-.52-.07-.7-.09-.18-.02-.44-.06-.75-.12-.32-.06-.55-.11-.7-.16-.15-.04-.39-.1-.7-.19-.32-.08-.51-.14-.58-.19l-1.91-.31c1.24.54,2.13.93,2.66,1.18.1.04.32.35.65.93.47.91,1,1.72,1.58,2.42.59.7,1.06,1.41,1.43,2.11.77,1.53,1,3.04.7,4.53-.3,1.49-.98,2.83-2.04,4.01-1.06,1.18-2.24,1.96-3.54,2.33-1.37.33-2.71.54-4.02.62s-2.57-.2-3.79-.84c-1.22-.64-2.17-1.65-2.84-3.01-1.61-3.31-1.88-7.08-.8-11.3,0-.08.02-.26.08-.53.05-.27.1-.46.15-.56.05-.1.13-.23.23-.37.1-.14.22-.26.35-.34.54-.21,1.11-.41,1.71-.62.6-.21,1.07-.37,1.41-.5l.5-.12c-.23,0-1.12.12-2.66.37-.4.08-1,.23-1.78.43-.79.21-1.37.33-1.73.37.37,2.15.3,4.35-.2,6.58-.3,1.45-.88,2.76-1.73,3.94-.85,1.18-1.84,2.15-2.97,2.92-1.12.77-2.39,1.42-3.79,1.96-1.41.54-2.8.93-4.17,1.18-1.37.25-2.76.39-4.17.43-1.71.04-3.38-.12-5.03-.5-1.64-.37-3.18-.97-4.6-1.8-1.42-.83-2.64-1.84-3.64-3.04-1.01-1.2-1.72-2.68-2.14-4.44-.42-1.76-.44-3.7-.08-5.81.17-.99.52-1.91,1.06-2.76.54-.85,1.11-1.52,1.71-2.02.6-.5,1.21-.89,1.81-1.18,1.44-.7,3.08-1.13,4.93-1.27,1.84-.14,3.33-.13,4.47.03l1.71.31c-2.04-1.08-4.56-1.47-7.54-1.18-.8.08-1.59.1-2.36.06-1.04-.04-1.94-.31-2.71-.81-.77-.5-1.36-1.14-1.76-1.93-.4-.79-.7-1.58-.88-2.39-.18-.81-.28-1.62-.28-2.45,0-1.95.28-3.66.83-5.15.55-1.49,1.27-2.69,2.16-3.6.89-.91,1.95-1.63,3.19-2.17,1.24-.54,2.47-.9,3.69-1.09,1.22-.19,2.52-.26,3.9-.22Z"/>
        <path class="cls-1" d="m113.92,126.95c-.34-7.08,2.38-10.58,8.14-10.5,2.18.04,3.9.88,5.15,2.51,1.26,1.64,1.94,4.03,2.04,7.17.03,1.16,0,2.78-.08,4.87-.08,2.09-.11,3.67-.08,4.75.07,1.37.49,3.04,1.28,5.03.79,1.99,1.28,3.4,1.48,4.22.4,1.95.61,3.67.63,5.19.02,1.51-.19,2.82-.63,3.91-.44,1.1-.97,2.02-1.61,2.76-.64.75-1.4,1.35-2.29,1.8-.89.46-1.77.78-2.64.96-.87.19-1.78.28-2.71.28-3.02-.04-5.34-.95-6.99-2.73-1.64-1.78-2.48-4.16-2.51-7.14,0-1.28.33-3.24.98-5.87.65-2.63.98-4.75.98-6.37-.03-1.28-.22-3.06-.55-5.34-.34-2.28-.54-4.12-.6-5.53Z"/>
        <path class="cls-1" d="m138.95,116.95c1.64-.54,3.23-.6,4.78-.19,1.54.41,2.71,1.22,3.52,2.42,1.04,1.53,1.91,3.85,2.61,6.96.64,2.61,1.03,5.63,1.18,9.07.15,3.44.16,6.21.03,8.32l-.2,3.17c.54-2.36.83-5.04.88-8.04.05-3-.08-5.76-.4-8.29-.32-2.52-.74-4.78-1.28-6.77-.5-1.82-.64-3.19-.4-4.1.23-1.03.78-1.74,1.63-2.11.85-.37,1.73-.43,2.64-.19,1.21.33,2.24,1.08,3.12,2.24.87,1.16,1.49,2.48,1.86,3.97.37,1.49.62,3.07.75,4.75.13,1.68.05,3.18-.25,4.5-.4,2.11-.7,4.22-.9,6.33-.2,2.32-.32,4.45-.35,6.4-.03,3.97-.99,7.37-2.86,10.18-.9,1.37-1.99,2.4-3.27,3.11-1.38.79-2.85,1.18-4.42,1.18s-3.07-.39-4.47-1.18c-1.34-.7-2.53-1.74-3.57-3.11-2.11-2.77-3.35-6.17-3.72-10.18-.17-1.78-.47-3.91-.9-6.4-.37-2.15-.82-4.26-1.36-6.33-.5-2.03-.69-3.95-.55-5.78.37-5.46,2.34-8.78,5.93-9.94Z"/>
        <path class="cls-1" d="m172.37,116.46c2.58.04,4.93.52,7.04,1.43,2.04.95,3.74,2.24,5.08,3.85,1.21,1.49,2.06,3.21,2.56,5.15.27,1.12.42,2.22.45,3.29.03,1.08,0,1.99-.12,2.73-.12.75-.25,1.67-.4,2.76-.15,1.1-.23,2.1-.23,3.01-.03.83.08,1.95.33,3.35.25,1.41.5,2.7.73,3.88s.34,2.54.33,4.07c-.02,1.53-.26,2.92-.73,4.16-.44,1.2-1.33,2.32-2.69,3.35-1.36,1.04-2.61,1.57-3.74,1.61-.34,0-.67,0-1-.03-.34-.02-.72-.08-1.16-.19-.44-.1-.8-.25-1.11-.43s-.59-.43-.85-.75c-.27-.31-.41-.69-.43-1.15-.02-.45.04-.99.18-1.61,1.1-3.97,1.47-7.41,1.1-10.31,0,.5-.04,1.18-.12,2.05-.08.87-.35,2.37-.8,4.5-.45,2.13-1.06,3.94-1.83,5.43-.8,1.12-1.89,2.01-3.24,2.67-1.36.66-2.89.79-4.6.37-1.14-.25-2.09-.79-2.86-1.61-.77-.83-1.33-1.8-1.68-2.92-.35-1.12-.63-2.38-.83-3.79-.2-1.41-.28-2.83-.25-4.25.03-1.43.03-2.85,0-4.25-.03-1.41-.07-2.69-.1-3.85-.1-2.15-.34-4.26-.7-6.33-.37-1.99-.45-3.91-.25-5.78.2-1.99.7-3.7,1.51-5.15.9-1.66,2.23-2.94,3.97-3.85,1.78-.91,3.94-1.39,6.48-1.43Zm8.14,18.01c-.2.17-.5.39-.88.68-.38.29-.7.54-.93.75-.44-.75-1.12-1.41-2.06-1.99.27.41.53.86.78,1.34.25.48.46.84.63,1.09-.37.37-.71.74-1.03,1.09-.32.35-.54.63-.68.84l-.2.25c.67-.21,1.47-.68,2.41-1.43.2.41.44.8.7,1.15.27.35.49.61.65.78l.2.31c-.14-.79-.45-1.68-.96-2.67.17-.25.33-.49.5-.71.17-.23.3-.42.4-.59.1-.16.18-.31.25-.43s.12-.23.15-.31l.05-.12Z"/>
        <path class="cls-1" d="m196.04,117.88c1.17-.54,2.4-.93,3.67-1.18,1.27-.25,2.56-.3,3.84-.15,1.29.15,2.45.52,3.47,1.12,1.02.6,1.83,1.55,2.44,2.86.6,1.3.89,2.89.86,4.75-.03,1.28-.36,2.71-.98,4.28-.62,1.57-1.3,3.02-2.04,4.35-.74,1.33-1.46,2.94-2.16,4.84-.7,1.91-1.16,3.75-1.36,5.53v.19c-.07.83-.28,1.24-.65,1.24l-3.52.25c1.31.37,2.92.5,4.82.37,1.21-.08,2.02-.24,2.44-.47.42-.23,1.06-.86,1.93-1.89.8-.95,1.66-1.48,2.56-1.58.9-.1,1.69.15,2.36.75.67.6,1.22,1.47,1.66,2.61.44,1.14.64,2.39.6,3.76-.03,1.28-.27,2.49-.7,3.63-.44,1.14-1.12,2.24-2.06,3.29-.94,1.06-2.29,1.91-4.05,2.55-1.76.64-3.83.96-6.21.96-2.08-.04-3.99-.43-5.73-1.18-1.71-.79-3.15-1.84-4.32-3.17-2.38-2.77-3.52-6.17-3.42-10.18.07-1.74.03-3.87-.1-6.4-.14-2.24-.32-4.35-.55-6.33-.27-1.99-.18-3.91.25-5.78.43-1.95,1.19-3.66,2.26-5.15,1.21-1.66,2.76-2.94,4.67-3.85Z"/>
      </g>
    </g>
  </g>
</svg>